<?xml version="1.0" encoding="UTF-8" standalone="no"?>
<!-- Created with Inkscape (http://www.inkscape.org/) -->

<svg
   xmlns:dc="http://purl.org/dc/elements/1.1/"
   xmlns:cc="http://creativecommons.org/ns#"
   xmlns:rdf="http://www.w3.org/1999/02/22-rdf-syntax-ns#"
   xmlns:svg="http://www.w3.org/2000/svg"
   xmlns="http://www.w3.org/2000/svg"
   xmlns:sodipodi="http://sodipodi.sourceforge.net/DTD/sodipodi-0.dtd"
   xmlns:inkscape="http://www.inkscape.org/namespaces/inkscape"
   width="64"
   height="64"
   id="svg3352"
   version="1.1"
   inkscape:version="0.91 r13725"
   viewBox="0 0 64 64"
   sodipodi:docname="trashbin_large.svg">
  <defs
     id="defs3354">
    <inkscape:path-effect
       effect="skeletal"
       id="path-effect3550"
       is_visible="true"
       pattern="m 0,-2.4427329 1,0"
       copytype="single_stretched"
       prop_scale="1"
       scale_y_rel="false"
       spacing="0"
       normal_offset="0"
       tang_offset="0"
       prop_units="false"
       vertical_pattern="false"
       fuse_tolerance="0" />
    <inkscape:path-effect
       effect="skeletal"
       id="path-effect3543"
       is_visible="false"
       pattern="m 0,1.4545455 1,0"
       copytype="single_stretched"
       prop_scale="1"
       scale_y_rel="false"
       spacing="0"
       normal_offset="0"
       tang_offset="0"
       prop_units="false"
       vertical_pattern="false"
       fuse_tolerance="0" />
    <inkscape:path-effect
       effect="skeletal"
       id="path-effect3541"
       is_visible="true"
       pattern="M 0,0 1,0"
       copytype="repeated_stretched"
       prop_scale="3"
       scale_y_rel="false"
       spacing="3"
       normal_offset="0"
       tang_offset="0"
       prop_units="false"
       vertical_pattern="false"
       fuse_tolerance="0" />
    <inkscape:path-effect
       effect="knot"
       id="path-effect3539"
       is_visible="true"
       interruption_width="3"
       prop_to_stroke_width="true"
       add_stroke_width="true"
       add_other_stroke_width="true"
       switcher_size="15"
       crossing_points_vector="" />
    <inkscape:path-effect
       effect="interpolate"
       id="path-effect3537"
       is_visible="true"
       trajectory="M 0,0 0,0"
       equidistant_spacing="true"
       steps="100" />
    <inkscape:path-effect
       effect="envelope"
       id="path-effect3535"
       is_visible="true"
       yy="true"
       xx="true"
       bendpath1="m 25.499076,2.6363634 13.183665,0"
       bendpath2="m 38.682741,2.6363634 0,6.12491"
       bendpath3="m 25.499076,8.7612734 13.183665,0"
       bendpath4="m 25.499076,2.6363634 0,6.12491" />
    <inkscape:path-effect
       effect="rough_hatches"
       id="path-effect3533"
       is_visible="true"
       direction="32.090908,0.69881841 , 3.2959162,0"
       dist_rdm="75;1"
       growth="0"
       do_bend="true"
       bender="32.090908,5.6988184 , 5,0"
       bottom_edge_variation="0.612491;1"
       top_edge_variation="0.612491;1"
       bottom_tgt_variation="0;1"
       top_tgt_variation="0;1"
       scale_bf="1"
       scale_bb="1"
       scale_tf="1"
       scale_tb="1"
       top_smth_variation="0;1"
       bottom_smth_variation="0;1"
       fat_output="true"
       stroke_width_top="1"
       stroke_width_bottom="1"
       front_thickness="1"
       back_thickness="0.25" />
    <inkscape:path-effect
       effect="gears"
       id="path-effect3531"
       is_visible="true"
       teeth="10"
       phi="5" />
    <inkscape:path-effect
       effect="construct_grid"
       id="path-effect3529"
       is_visible="true"
       nr_x="5"
       nr_y="5" />
    <inkscape:path-effect
       effect="bend_path"
       id="path-effect3527"
       is_visible="true"
       bendpath="m 25.499076,5.6988184 13.183665,0"
       prop_scale="10"
       scale_y_rel="false"
       vertical="false" />
    <inkscape:path-effect
       effect="powerstroke"
       id="path-effect3525"
       is_visible="true"
       offset_points="0,1 | 2,1 | 4,1"
       sort_points="true"
       interpolator_type="CentripetalCatmullRom"
       interpolator_beta="0.22"
       start_linecap_type="round"
       linejoin_type="spiro"
       miter_limit="10"
       end_linecap_type="round" />
    <inkscape:path-effect
       effect="powerstroke"
       id="path-effect3520"
       is_visible="true"
       offset_points="0,1 | 1.5,1 | 3,1"
       sort_points="true"
       interpolator_type=""
       interpolator_beta="0.2"
       start_linecap_type="round"
       linejoin_type="round"
       miter_limit="4"
       end_linecap_type="round" />
    <inkscape:path-effect
       effect="powerstroke"
       id="path-effect3515"
       is_visible="true"
       offset_points="0,1 | 0.5,1 | 1,1"
       sort_points="true"
       interpolator_type=""
       interpolator_beta="0.2"
       start_linecap_type="round"
       linejoin_type="round"
       miter_limit="4"
       end_linecap_type="round" />
    <inkscape:path-effect
       effect="powerstroke"
       id="path-effect3513"
       is_visible="true"
       offset_points="0,1 | 0.5,1 | 1,1"
       sort_points="true"
       interpolator_type=""
       interpolator_beta="0.2"
       start_linecap_type="round"
       linejoin_type="round"
       miter_limit="4"
       end_linecap_type="round" />
    <inkscape:path-effect
       effect="powerstroke"
       id="path-effect3507"
       is_visible="true"
       offset_points="0,0.97609011 | 0.5,0.97609011 | 1,0.97609011"
       sort_points="true"
       interpolator_type=""
       interpolator_beta="0.2"
       start_linecap_type="round"
       linejoin_type="round"
       miter_limit="4"
       end_linecap_type="round" />
    <inkscape:path-effect
       effect="powerstroke"
       id="path-effect3505"
       is_visible="true"
       offset_points="0,0.97609011 | 0.5,0.97609011 | 1,0.97609011"
       sort_points="true"
       interpolator_type=""
       interpolator_beta="0.2"
       start_linecap_type="round"
       linejoin_type="round"
       miter_limit="4"
       end_linecap_type="round" />
    <inkscape:path-effect
       effect="powerstroke"
       id="path-effect3503"
       is_visible="true"
       offset_points="0,0.97609011 | 0.5,0.97609011 | 1,0.97609011"
       sort_points="true"
       interpolator_type=""
       interpolator_beta="0.2"
       start_linecap_type="round"
       linejoin_type="round"
       miter_limit="4"
       end_linecap_type="round" />
    <inkscape:path-effect
       effect="powerstroke"
       id="path-effect3501"
       is_visible="true"
       offset_points="0,0.97609011 | 0.5,0.97609011 | 1,0.97609011"
       sort_points="true"
       interpolator_type=""
       interpolator_beta="0.2"
       start_linecap_type="round"
       linejoin_type="round"
       miter_limit="4"
       end_linecap_type="round" />
    <inkscape:path-effect
       effect="powerstroke"
       id="path-effect3499"
       is_visible="true"
       offset_points="0,0.97609011 | 0.5,0.97609011 | 1,0.97609011"
       sort_points="true"
       interpolator_type=""
       interpolator_beta="0.2"
       start_linecap_type="round"
       linejoin_type="round"
       miter_limit="4"
       end_linecap_type="round" />
    <inkscape:path-effect
       effect="knot"
       id="path-effect3487"
       is_visible="true"
       interruption_width="3"
       prop_to_stroke_width="true"
       add_stroke_width="true"
       add_other_stroke_width="true"
       switcher_size="15"
       crossing_points_vector="" />
    <inkscape:path-effect
       effect="ruler"
       id="path-effect3485"
       is_visible="true"
       unit="px"
       mark_distance="20"
       mark_length="14"
       minor_mark_length="7"
       major_mark_steps="5"
       shift="0"
       offset="0"
       mark_dir="left"
       border_marks="both" />
    <inkscape:path-effect
       effect="sketch"
       id="path-effect3483"
       is_visible="true"
       nbiter_approxstrokes="5"
       strokelength="100"
       strokelength_rdm="0.3;1"
       strokeoverlap="0.3"
       strokeoverlap_rdm="0.3;1"
       ends_tolerance="0.1;1"
       parallel_offset="5;1"
       tremble_size="5;1"
       tremble_frequency="1"
       nbtangents="5"
       tgt_places_rdmness="1;1"
       tgtscale="10"
       tgtlength="100"
       tgtlength_rdm="0.3;1" />
    <inkscape:path-effect
       effect="vonkoch"
       id="path-effect3481"
       is_visible="true"
       ref_path="m 15.272722,38.045455 32.003796,0"
       generator="m 15.272722,59.272728 10.667932,0 m 10.667932,0 10.667932,0"
       similar_only="false"
       nbgenerations="1"
       drawall="true"
       maxComplexity="1000" />
    <inkscape:path-effect
       effect="curvestitching"
       id="path-effect3479"
       is_visible="true"
       count="5"
       startpoint_edge_variation="0;1"
       startpoint_spacing_variation="0;1"
       endpoint_edge_variation="0;1"
       endpoint_spacing_variation="0;1"
       strokepath="m 15.272722,38.045455 32.003796,0"
       prop_scale="1"
       scale_y_rel="false" />
    <inkscape:path-effect
       effect="spiro"
       id="path-effect3477"
       is_visible="true" />
    <inkscape:path-effect
       effect="powerstroke"
       id="path-effect3473"
       is_visible="true"
       offset_points="0,1 | 2,1 | 4,1"
       sort_points="true"
       interpolator_type=""
       interpolator_beta="0.2"
       start_linecap_type="round"
       linejoin_type="round"
       miter_limit="4"
       end_linecap_type="round" />
  </defs>
  <sodipodi:namedview
     id="base"
     pagecolor="#ffffff"
     bordercolor="#666666"
     borderopacity="1.0"
     inkscape:pageopacity="0.0"
     inkscape:pageshadow="2"
     inkscape:zoom="7.7781746"
     inkscape:cx="26.191095"
     inkscape:cy="30.349041"
     inkscape:current-layer="layer1"
     showgrid="true"
     inkscape:document-units="px"
     inkscape:grid-bbox="true"
     inkscape:window-width="1600"
     inkscape:window-height="834"
     inkscape:window-x="0"
     inkscape:window-y="27"
     inkscape:window-maximized="1" />
  <metadata
     id="metadata3357">
    <rdf:RDF>
      <cc:Work
         rdf:about="">
        <dc:format>image/svg+xml</dc:format>
        <dc:type
           rdf:resource="http://purl.org/dc/dcmitype/StillImage" />
        <dc:title></dc:title>
      </cc:Work>
    </rdf:RDF>
  </metadata>
  <g
     id="layer1"
     inkscape:label="Layer 1"
     inkscape:groupmode="layer">
    <path
       style="fill:none;fill-rule:evenodd;stroke:#000000;stroke-width:1px;stroke-linecap:butt;stroke-linejoin:miter;stroke-opacity:1"
       d="M 4.9090909,9.6363636 Z"
       id="path3360"
       inkscape:connector-curvature="0" />
    <path
       id="use3366"
       style="fill:none;fill-rule:evenodd;stroke:#000000;stroke-width:1px;stroke-linecap:butt;stroke-linejoin:miter;stroke-opacity:1"
       d="m 6.4701298,14.994039 8.3636362,46.818182 a 1,1 0 0 0 0.984416,0.824143 l 16.117468,0 16.117468,0 a 1,1 0 0 0 0.984416,-0.824143 L 57.40117,14.994039 a 1,1 90 0 0 -1.968832,-0.351714 l -8.21641,45.994039 -15.280278,0 -15.280278,0 -8.2164106,-45.994039 a 1,1 90 0 0 -1.9688316,0.351714 z"
       inkscape:connector-curvature="0"
       sodipodi:nodetypes="cccc"
       inkscape:path-effect="#path-effect3520"
       inkscape:original-d="m 7.4545456,14.818182 8.3636364,46.818182 c 10.744979,0 21.489957,0 32.234936,0 l 8.363636,-46.818182" />
    <path
       style="fill:none;fill-rule:evenodd;stroke:#000000;stroke-width:1px;stroke-linecap:butt;stroke-linejoin:miter;stroke-opacity:1"
       d="m 7.0909091,10.7832 24.7272729,0 24.727273,0 a 1,1 90 0 0 0,-1.9999998 l -24.727273,0 -24.7272729,0 a 1,1 90 0 0 0,1.9999998 z"
       id="path3368"
       inkscape:connector-curvature="0"
       sodipodi:nodetypes="cc"
       inkscape:original-d="m 7.0909091,9.7832002 49.4545459,0"
       inkscape:path-effect="#path-effect3515" />
    <a
       id="a3383" />
    <path
       id="use3378"
       style="fill:none;fill-rule:evenodd;stroke:#000000;stroke-width:1px;stroke-linecap:butt;stroke-linejoin:miter;stroke-opacity:1"
       d="m 38.627355,6.7820935 c 0,0 -5.27e-4,0.0039 0,0 -0.0011,0.00848 -0.0025,0.01695 -0.0032,0.025482 0.0276,-0.1468306 0.03284,-0.2987656 0.04215,-0.4478406 l 0,0 c 0.02038,-0.3264719 0.02315,-0.6542508 0.002,-0.9806754 l 0,0 0,-1e-6 c -0.0258,-0.398714 -0.08725,-0.796847 -0.210824,-1.1768032 l 0,-1.8e-6 0,0 C 38.294758,3.7017567 38.007952,3.2281753 37.578747,2.9235781 l 0,0 -10e-7,-6e-7 c -0.745537,-0.5290908 -1.65648,-0.7703324 -2.5511,-0.9585286 l 0,0 c -0.965123,-0.2030276 -1.950491,-0.316873 -2.936738,-0.316873 -0.986246,0 -1.971614,0.1138453 -2.936736,0.3168726 0,1e-7 0,1e-7 -10e-7,2e-7 -0.89462,0.1881964 -1.805563,0.4294379 -2.551101,0.9585291 -0.429205,0.3045972 -0.716011,0.7781787 -0.878796,1.2786758 l 0,0 c -0.123579,0.379957 -0.185025,0.778091 -0.210824,1.176806 l 0,0 c -0.02112,0.3264246 -0.01835,0.6542035 0.002,0.9806754 l 0,1e-6 c 0.0066,0.1056398 0.01506,0.2111705 0.02607,0.3164412 l 0,0 c 0,0 0,2e-6 0,2e-6 0.0044,0.042402 0.008,0.089488 0.01586,0.1313982 -4.84e-4,-0.00861 -0.0018,-0.016924 -0.003,-0.025484 0.140238,1.0377648 2.122223,0.7699293 1.981984,-0.2678356 0.0014,0.010528 0.003,0.021042 0.004,0.031623 -0.05702,-0.3393181 -0.05335,-0.6943763 -0.03113,-1.0376797 0,-7e-7 0,-1.3e-6 1e-6,-2e-6 0.01518,-0.234677 0.04351,-0.4705213 0.116416,-0.694104 0.03148,-0.096553 0.05696,-0.1805178 0.128014,-0.2530768 0,0 1e-6,-1.4e-6 1e-6,-1.4e-6 0.0023,-0.00236 0.0092,-0.00878 0.0069,-0.00643 0,0 0,1e-7 0,1e-7 0.52266,-0.3709195 1.17815,-0.5004445 1.805324,-0.6323797 0.829855,-0.174572 1.677002,-0.2740363 2.52502,-0.2740363 0.848018,0 1.695165,0.099464 2.52502,0.2740362 0.627174,0.1319352 1.282665,0.2614603 1.805325,0.63238 -0.0027,-0.00188 0.0042,0.00454 0.0069,0.00643 l 0,1.7e-6 c 0.0666,0.068013 0.0985,0.1625692 0.128012,0.2530729 0,7e-7 0,1.3e-6 10e-7,1.9e-6 l 0,0 c 0.0729,0.2235833 0.101232,0.4594283 0.116417,0.694106 0,6e-7 0,1.3e-6 0,1.9e-6 0.0152,0.2348808 0.01314,0.47072 -9.47e-4,0.7056699 l 0,2e-6 c -0.0046,0.077469 -0.01063,0.1548619 -0.01839,0.2320807 l 0,0 c 0,0 -1e-6,2e-6 -1e-6,2e-6 -0.0032,0.032255 -0.0062,0.067931 -0.01159,0.099904 7.54e-4,-0.010686 0.0023,-0.020952 0.0038,-0.031603 0.003,-0.022548 0,0 0,0 -0.140239,1.0377649 1.841746,1.3056004 1.981984,0.2678356 z"
       inkscape:connector-curvature="0"
       sodipodi:nodetypes="csssc"
       inkscape:original-d="m 37.636363,6.6481757 c 0,0 0.30303,-2.242424 -0.636363,-2.9090907 -0.939394,-0.6666667 -3.23281,-1.0909091 -4.909092,-1.0909091 -1.676281,0 -3.969697,0.4242424 -4.909091,1.0909091 -0.939393,0.6666667 -0.636363,2.9090907 -0.636363,2.9090907"
       inkscape:path-effect="#path-effect3525;#path-effect3550" />
    <path
       style="fill:none;fill-rule:evenodd;stroke:#000000;stroke-width:0.97577947px;stroke-linecap:butt;stroke-linejoin:miter;stroke-opacity:1"
       d="m 38.490945,16.682987 -1.546556,20.197035 -1.546557,20.197035 a 0.97609011,0.97609011 90 0 0 1.946482,0.149048 L 38.89087,37.02907 40.437427,16.832035 a 0.97609011,0.97609011 90 0 0 -1.946482,-0.149048 z"
       id="path3497"
       inkscape:path-effect="#path-effect3505"
       inkscape:original-d="m 39.464186,16.757511 -3.093113,40.39407"
       inkscape:connector-curvature="0" />
    <path
       style="fill:none;fill-rule:evenodd;stroke:#000000;stroke-width:0.97577947px;stroke-linecap:butt;stroke-linejoin:miter;stroke-opacity:1"
       d="m 46.320073,16.631083 -2.638244,20.197035 -2.638245,20.197035 a 0.97609011,0.97609011 90 0 0 1.935736,0.252856 l 2.638244,-20.197035 2.638245,-20.197035 a 0.97609011,0.97609011 90 0 0 -1.935736,-0.252856 z"
       id="path3495"
       inkscape:path-effect="#path-effect3507"
       inkscape:original-d="m 47.287941,16.757511 -5.276489,40.39407"
       inkscape:connector-curvature="0" />
    <path
       style="fill:none;fill-rule:evenodd;stroke:#000000;stroke-width:0.97577947px;stroke-linecap:butt;stroke-linejoin:miter;stroke-opacity:1"
       d="m 30.296615,16.757511 c 0,0 -10e-7,20.197035 -10e-7,20.197035 0,0 -1e-6,20.197035 -1e-6,20.197035 a 0.97609011,0.97609011 90 0 0 1.95218,0 c 0,0 10e-7,-20.197035 10e-7,-20.197035 0,-6.732345 1e-6,-13.46469 1e-6,-20.197035 a 0.97609011,0.97609011 90 0 0 -1.95218,0 z"
       id="path3493"
       inkscape:path-effect="#path-effect3503"
       inkscape:original-d="m 31.272705,16.757511 -2e-6,40.39407"
       inkscape:connector-curvature="0" />
    <path
       style="fill:none;fill-rule:evenodd;stroke:#000000;stroke-width:0.97577947px;stroke-linecap:butt;stroke-linejoin:miter;stroke-opacity:1"
       d="m 22.111813,16.832035 1.546557,20.197035 1.546556,20.197035 a 0.97609011,0.97609011 90 0 0 1.946482,-0.149048 L 25.604851,36.880022 24.058295,16.682987 a 0.97609011,0.97609011 90 0 0 -1.946482,0.149048 z"
       id="path3491"
       inkscape:path-effect="#path-effect3501"
       inkscape:original-d="m 23.085054,16.757511 3.093113,40.39407"
       inkscape:connector-curvature="0" />
    <path
       style="fill:none;fill-rule:evenodd;stroke:#000000;stroke-width:0.97577947px;stroke-linecap:butt;stroke-linejoin:miter;stroke-opacity:1"
       d="m 14.293431,16.883939 2.638245,20.197035 2.638244,20.197035 a 0.97609011,0.97609011 90 0 0 1.935736,-0.252856 L 18.867411,36.828118 16.229167,16.631083 a 0.97609011,0.97609011 90 0 0 -1.935736,0.252856 z"
       id="use3468"
       inkscape:path-effect="#path-effect3499"
       inkscape:original-d="m 15.261299,16.757511 5.276489,40.39407"
       inkscape:connector-curvature="0" />
  </g>
</svg>
